<svg width="129" height="48" viewBox="0 0 129 48" fill="none" xmlns="http://www.w3.org/2000/svg">
<path d="M70.4238 0.843747L69.3574 1.39453L65.0918 6.3457C62.7363 9.07617 60.7559 11.373 60.6797 11.4727C60.5684 11.6133 60.6328 11.7305 61.2832 12.4922C61.6816 12.9609 62.0039 13.3828 62.0039 13.4355C62.0039 13.4707 61.6406 13.6992 61.207 13.9336L60.416 14.3555L56.8066 11.127L53.2031 7.89258L52.1484 8.46093C51.2988 8.91211 51.0586 9.09375 50.8887 9.39258L50.6777 9.76171L50.6484 8.93554L50.625 8.10351L44.7656 10.002C39.6211 11.6543 38.7832 11.959 37.8574 12.4512C37.2891 12.7617 36.8027 13.0195 36.7852 13.0371C36.7383 13.0664 37.0605 19.2715 37.1074 19.3184C37.125 19.3477 37.5762 19.2598 38.0977 19.1367C38.6191 19.0078 39.0586 18.9258 39.0879 18.9492C39.1055 18.9727 39.1465 19.2715 39.1641 19.6172L39.2109 20.2383H37.8691C36.8145 20.25 36.3457 20.2969 35.6895 20.4609C34.582 20.7422 33.5566 21.1641 32.6777 21.6914C32.291 21.9258 31.957 22.1074 31.9336 22.084C31.916 22.0605 31.957 21.7207 32.0098 21.334C32.1621 20.3672 32.0684 18.6035 31.8105 17.6894C31.166 15.3867 29.6191 13.3945 27.3164 11.9238C25.6758 10.8867 24.5449 10.4707 22.4297 10.1543C18.2227 9.50976 13.5645 10.2422 8.81836 12.2695C6.75 13.166 5.68359 13.7285 3.38086 15.1992C2.35547 15.8555 1.83984 16.2598 1.16016 16.9512L0.275391 17.8535L3.05859 22.6055C4.58203 25.2187 5.88867 27.416 5.95312 27.4805C6.04102 27.5742 6.26953 27.5215 7.08398 27.1641C7.6582 26.9121 8.15039 26.748 8.19141 26.8008C8.22656 26.8359 10.3066 31.5644 12.8027 37.3066C15.3047 43.0488 17.3613 47.748 17.3848 47.7715C17.3906 47.7773 19.3535 47.1621 21.7266 46.3945L26.0508 44.9824L27.0879 44.2969C27.6621 43.916 28.166 43.5762 28.2129 43.5469C28.2891 43.5 27.1758 38.9414 26.6133 36.9785C26.4609 36.4219 26.4609 36.4219 26.9473 37.1836C27.4395 37.9629 28.5 39.0762 29.1855 39.5391C29.9824 40.0957 31.0137 40.5469 31.9746 40.7812C32.6895 40.9512 33.0117 40.9687 34.1426 40.9336C35.7187 40.875 36.5625 40.6758 37.8809 40.0488C38.7188 39.6562 40.3359 38.6074 40.5762 38.3086C40.6406 38.2324 40.7285 38.1738 40.7637 38.1738C40.8047 38.1738 40.8867 38.8652 40.957 39.7207C41.0332 40.623 41.127 41.291 41.1855 41.3086C41.2383 41.3262 43.1191 41.0742 45.3457 40.7402L49.3945 40.1367L50.4902 39.5508L51.5742 38.959L51.5391 36.3574C51.5156 34.9219 51.5273 33.75 51.5684 33.75C51.6035 33.75 55.0254 35.4434 59.1738 37.5176L66.709 41.2793L67.7871 40.7109L68.8594 40.1426V32.9355L69.498 32.8066C70.4707 32.625 71.4609 32.25 72.6504 31.6348C73.2363 31.3242 73.7227 31.1074 73.7227 31.1426C73.7227 31.1719 73.5879 31.9629 73.4355 32.8828C73.2832 33.8086 73.1484 34.6758 73.1484 34.8105V35.0566L77.7949 35.8066L82.4355 36.5508L83.291 36.0762C83.7656 35.8184 84.1758 35.6133 84.2168 35.6367C84.252 35.666 84.5215 36.1348 84.8145 36.6914L85.3594 37.6992L86.168 37.2598C86.6133 37.0195 86.9941 36.8379 87.0176 36.8555C87.0469 36.8848 87.1289 37.4824 87.2168 38.1855C87.2988 38.8945 87.3984 39.498 87.4277 39.5391C87.4805 39.5977 97.6348 41.4434 97.9336 41.4434C98.0449 41.4434 99.9023 40.4824 100.096 40.3242C100.131 40.3008 99.8555 38.3262 99.75 37.916C99.7148 37.7285 99.75 37.6934 100.072 37.6465C100.969 37.5 101.865 37.2773 102.305 37.0957C102.562 36.9785 102.797 36.9258 102.826 36.9492C102.855 36.9785 102.791 37.8105 102.674 38.8008C102.551 39.7793 102.475 40.5937 102.492 40.6172C102.51 40.623 103.986 40.8457 105.768 41.0977C107.549 41.3555 109.125 41.5781 109.277 41.6074L109.529 41.6543V44.5078L111.656 45.1934C112.816 45.5742 114.428 46.0957 115.23 46.3535C116.027 46.6172 116.754 46.8281 116.836 46.8281C116.912 46.8281 117.445 46.5762 118.02 46.2715L119.057 45.7207L123.826 31.2129C126.445 23.2324 128.561 16.6758 128.514 16.6348C128.426 16.5644 118.893 14.2324 118.693 14.2324C118.629 14.2324 118.254 14.4023 117.873 14.6133C117.492 14.8242 117.158 15 117.135 15C117.105 15 117.029 14.7187 116.959 14.373C116.895 14.0273 116.83 13.7519 116.818 13.7519C116.801 13.7519 114.158 13.166 110.953 12.4512L105.123 11.1621L104.162 11.6895C103.635 11.9883 103.16 12.2695 103.102 12.3164C103.043 12.375 103.025 13.5 103.043 15.334L103.072 18.2519L102.656 18.3105C102.434 18.334 101.977 18.3867 101.648 18.416C100.389 18.5391 98.6953 19.1543 97.5 19.9219C97.2539 20.0859 97.0371 20.2031 97.0195 20.1855C96.9961 20.1621 96.6152 17.7598 96.1582 14.8535C95.7012 11.9414 95.3145 9.45117 95.2852 9.29883L95.2266 9.04101H87.4336L86.5957 9.49218C86.1387 9.73242 85.6523 10.0195 85.5117 10.1133C85.2832 10.2715 85.0078 10.2891 82.1309 10.3008H79.0078L77.959 10.8926L76.9219 11.4902L76.6992 12.7793C76.5879 13.4824 76.4707 14.0742 76.4531 14.0977C76.4355 14.1152 76.2539 13.9922 76.043 13.8105C74.584 12.5508 72.6035 11.7187 70.3945 11.4316L69.5098 11.3145L70.2246 10.9219C70.6172 10.6992 72.1406 9.87304 73.6172 9.08789C75.082 8.29101 76.2891 7.60546 76.2891 7.56445C76.2891 7.48828 71.6895 0.52734 71.5371 0.363279C71.5078 0.333981 71.0039 0.550779 70.4238 0.843747ZM72.4746 5.36718C73.0605 6.17578 73.5586 6.88476 73.5879 6.94921C73.6172 7.03125 72.293 7.74023 70.0078 8.89453L66.375 10.7227L66.1934 10.4824C65.8535 10.0371 65.8711 9.92578 66.3105 9.39258C70.6406 4.08398 71.0977 3.55664 71.25 3.73242C71.3379 3.81445 71.8828 4.55859 72.4746 5.36718ZM93.4805 11.3672C93.5684 11.748 95.0566 21.6269 95.0566 21.8262C95.0566 21.9316 94.8047 22.3535 94.5 22.7695C92.8477 25.0312 92.1621 27.8555 92.666 30.334C93.1582 32.7598 94.7285 34.8633 96.791 35.8769C97.2832 36.1172 97.3008 36.1465 97.4004 36.9492C97.4531 37.5 97.4531 37.5117 97.2363 37.459C97.1133 37.4355 95.8066 37.2305 94.3418 37.0078C92.8711 36.791 91.6641 36.5977 91.6523 36.5859C91.6348 36.5742 91.2832 34.2598 90.8613 31.4414C90.4336 28.6172 90.082 26.291 90.0762 26.2793C90.0527 26.2676 89.625 27.375 89.1035 28.7285C87.7793 32.2031 87.9141 31.9043 87.7852 31.6816C87.7324 31.5762 86.9883 29.9824 86.1328 28.1367C85.2832 26.2793 84.5684 24.8379 84.5391 24.9141C84.5098 24.9785 84.2168 26.8359 83.8711 29.0273C83.5313 31.2129 83.2324 33.0176 83.2266 33.0293C83.209 33.0469 81.9961 32.8477 80.5312 32.584C79.0605 32.3262 77.8359 32.1152 77.8066 32.1152C77.7773 32.1152 77.918 31.084 78.1289 29.8359L78.5039 27.5566L79.6641 26.3144C80.291 25.6348 80.8242 25.0488 80.8418 25.0078C80.8535 24.9727 80.4844 24.6152 80.0273 24.1992L79.1777 23.4609L80.1035 17.959L81.0176 12.4512L83.7949 12.4219C85.3301 12.416 86.5781 12.4219 86.5781 12.4394C86.5781 12.4687 86.8828 14.1445 87.2461 16.1719C87.8438 19.4238 88.0078 20.2207 88.0078 19.8281C88.0078 19.6758 89.4258 11.5371 89.4902 11.3145C89.5371 11.1738 89.7188 11.1562 91.4824 11.1562C93.4277 11.1562 93.4336 11.1562 93.4805 11.3672ZM48.4688 14.9062C48.5859 16.834 48.6914 18.4922 48.6973 18.5977C48.709 18.7031 49.6992 17.3848 51.2812 15.1348C52.6875 13.125 53.8711 11.4609 53.9062 11.4258C53.959 11.3555 58.957 16.0781 59.0332 16.2598C59.0508 16.3008 57.4512 18.041 55.4883 20.1269L51.9199 23.9238L54.9375 25.1367C56.5957 25.7988 58.1016 26.3965 58.2715 26.4492C58.5117 26.5312 58.6992 26.7422 59.0215 27.2519C59.6426 28.2129 61.1191 29.6543 62.0801 30.2285C63.0996 30.8437 64.377 31.3242 65.6543 31.5762L66.6738 31.7812V36.6328L58.1016 32.3086L49.5293 27.9785V37.0195L49.3184 37.0664C49.1016 37.1133 45.9375 37.5586 45.3867 37.6172L45.0996 37.6465L44.7949 33.9902L45.2051 33.123C46.916 29.4727 46.5293 25.5293 44.1855 22.9336L43.8398 22.5469L43.5352 18.8965C43.377 16.8867 43.2422 15.1641 43.2422 15.0762C43.2422 14.9355 43.1367 14.9414 42.252 15.1816L41.2617 15.4512L41.2031 15.1055C41.1738 14.9121 41.1445 14.4785 41.1445 14.1328V13.5117L44.7012 12.4394C46.6406 11.8535 48.252 11.373 48.252 11.3848C48.2578 11.3965 48.3633 12.9727 48.4688 14.9062ZM22.1426 12.4512C24.1172 12.75 25.6699 13.4355 27.1465 14.6367C28.3828 15.6445 29.373 17.2324 29.6777 18.6621C30.0703 20.4785 29.543 22.875 28.3242 24.9316C27.1523 26.9062 25.0898 29.0391 23.1738 30.2812C22.8984 30.4512 22.6699 30.6562 22.6699 30.7324C22.6699 30.8086 23.3145 33.3633 24.0996 36.416C24.8848 39.4629 25.5176 41.959 25.5059 41.9707C25.3359 42.0937 20.8184 43.459 20.7715 43.3945C20.7363 43.3535 18.5449 38.4492 15.9082 32.5019C13.2773 26.5488 11.1035 21.6738 11.0977 21.6562C11.0742 21.6328 10.541 21.8848 9.9082 22.2129C9.25781 22.541 8.70703 22.7695 8.66602 22.7227C8.52539 22.5644 5.23828 16.9219 5.23828 16.834C5.23828 16.7227 6.55078 15.9258 7.70508 15.334C10.7988 13.7695 14.5254 12.6152 17.4316 12.3164C18.6328 12.1934 20.8477 12.2578 22.1426 12.4512ZM71.0332 13.8105C71.9004 13.9922 72.9023 14.3965 73.7109 14.8828C74.332 15.2578 75.4746 16.2422 75.6152 16.5293C75.6914 16.6758 75.1172 17.3379 72.1934 20.4902C70.2422 22.5879 68.707 24.3105 68.7598 24.3574C68.8594 24.4629 70.1602 24.2695 70.9102 24.0293C71.7187 23.7773 72.5215 23.2676 73.2598 22.5293C73.834 21.9492 73.9102 21.9141 74.0742 22.0312C74.1797 22.1074 75.0176 22.8574 75.9492 23.7012L77.6426 25.2422L76.9512 25.8926C74.7656 27.9434 71.3965 29.3437 68.3379 29.4902C65.918 29.5957 63.9844 29.0098 62.291 27.6445C59.7949 25.6465 59.0215 21.5977 60.5566 18.5098C61.6875 16.2129 64.1074 14.4609 66.9551 13.8574C68.1094 13.6172 69.9961 13.5879 71.0332 13.8105ZM111.059 14.6719C113.074 15.0879 114.75 15.4394 114.791 15.4687C114.826 15.5098 115.43 18.2519 116.121 21.5684C116.807 24.8848 117.41 27.5508 117.445 27.4805C117.475 27.416 118.078 24.9727 118.77 22.0664C119.467 19.1543 120.035 16.7695 120.047 16.7578C120.076 16.7285 125.76 17.9883 125.801 18.0293C125.83 18.0586 117.732 42.8965 117.674 42.9609C117.645 43.0019 113.701 41.8359 113.648 41.7773C113.625 41.7598 113.531 38.4492 113.438 34.4238C113.344 30.3926 113.244 27.0879 113.227 27.0644C113.209 27.0469 112.816 29.2031 112.354 31.8574C111.885 34.5117 111.445 37.0371 111.363 37.4824C111.229 38.2324 111.211 38.2676 110.971 38.2676C110.648 38.2617 106.887 37.6465 106.834 37.5937C106.811 37.5644 106.863 36.8086 106.951 35.9121L107.104 34.2773L107.666 33.75C108.885 32.584 110.139 30.4687 110.578 28.8457C111.34 25.9629 110.701 22.9336 108.914 20.9824L108.398 20.4258L108.58 18.5508C108.686 17.5195 108.768 16.6348 108.768 16.5762C108.768 16.5176 108.41 16.3769 107.959 16.248L107.15 16.0312V15.3457C107.15 14.6074 107.238 13.9394 107.332 13.9394C107.361 13.9394 109.037 14.2676 111.059 14.6719ZM104.273 20.4316C106.482 20.8769 108.258 22.5469 108.826 24.709C109.037 25.5293 109.049 27.1348 108.838 28.0078C108.229 30.5508 106.236 32.959 103.863 34.0488C102.662 34.5937 101.895 34.7578 100.529 34.7519C99.4277 34.7519 99.2051 34.7227 98.5312 34.4824C97.4824 34.1133 96.8086 33.6738 96.0762 32.8828C94.998 31.7402 94.4824 30.375 94.4824 28.6465C94.4824 25.0664 97.3711 21.4805 101.01 20.5488C102.123 20.2617 103.207 20.2207 104.273 20.4316ZM57.5859 21.4394C57.5566 21.6562 57.5684 22.3184 57.6211 22.9043C57.6797 23.4902 57.709 23.9824 57.6973 23.9883C57.6797 24.0117 57.1641 23.8184 56.5488 23.5781L55.4238 23.1445L56.4492 22.0957C57.0117 21.5273 57.5156 21.0586 57.5684 21.0586C57.6152 21.0586 57.6211 21.2285 57.5859 21.4394ZM39.668 22.1719C41.0977 22.5117 42.5449 23.5371 43.3242 24.75C45.7266 28.459 43.7168 34.1133 39.1934 36.416C37.6113 37.2187 35.6016 37.5176 34.0605 37.1719C31.043 36.4922 28.957 33.6328 29.1738 30.4805C29.5547 25.1836 34.8223 21.0117 39.668 22.1719Z" fill="#121214" fill-opacity="0.8"/>
<path d="M21.1523 19.0371C20.4492 19.1426 19.2422 19.6055 19.2422 19.7695C19.2422 20.1738 21.6387 27.9023 21.7734 27.9492C21.9434 28.0078 23.707 26.6367 24.3047 25.9805C25.9453 24.1934 26.1328 21.5098 24.7266 20.0859C24.2402 19.5879 23.3848 19.1719 22.5703 19.0488C21.8965 18.9316 21.8848 18.9316 21.1523 19.0371ZM22.6875 20.8652C23.1445 21 23.6133 21.3926 23.7715 21.7969C23.9473 22.2129 23.9473 23.0215 23.7656 23.6133C23.6426 24.041 22.8516 25.1894 22.6875 25.1894C22.6289 25.1894 21.6094 21.9316 21.4863 21.3281C21.457 21.1934 21.4043 21.0117 21.375 20.9238C21.3281 20.8008 21.4043 20.7715 21.8203 20.7715C22.1074 20.7715 22.4941 20.8184 22.6875 20.8652Z" fill="#121214" fill-opacity="0.8"/>
<path d="M66.6504 17.1152C65.918 17.373 65.5781 17.5957 64.998 18.1758C63.8789 19.2891 63.5273 20.9883 64.0898 22.5C64.3066 23.0859 64.8516 23.8535 65.291 24.1934L65.5781 24.416L68.1504 21.4805C69.5683 19.8633 70.7578 18.4805 70.8164 18.416C70.957 18.1992 70.4414 17.7305 69.6504 17.3379C69.041 17.0273 68.8594 16.9922 68.0801 16.9512C67.3652 16.9219 67.0898 16.9512 66.6504 17.1152ZM68.6543 18.5508C68.7363 18.5977 68.2793 19.1836 67.2422 20.3965C66.3926 21.3633 65.6719 22.1719 65.6309 22.1894C65.4727 22.248 65.291 21.5684 65.3027 20.959C65.3086 19.6641 66.2637 18.6328 67.623 18.4336C67.8984 18.3926 68.4785 18.4629 68.6543 18.5508Z" fill="#121214" fill-opacity="0.8"/>
<path d="M101.057 21.9609C99.9902 22.2598 99.1992 22.9043 98.748 23.8242C98.4668 24.4043 98.4375 24.5508 98.4375 25.3359C98.4375 26.0977 98.4668 26.2676 98.7129 26.7773C99.8379 29.0859 102.967 29.625 104.865 27.8262C105.123 27.5859 105.457 27.1348 105.598 26.8359C105.838 26.3555 105.867 26.1914 105.867 25.3359C105.867 24.5273 105.838 24.3164 105.656 23.9883L105.445 23.6074L105.434 24.0117C105.434 24.5508 105.293 24.8848 104.93 25.2715C103.986 26.2617 102.428 26.2969 101.496 25.3477C101.01 24.8555 100.828 24.3867 100.881 23.7422C100.957 22.9395 101.59 22.2598 102.504 21.9727L102.914 21.8379L102.199 21.8437C101.807 21.8437 101.291 21.8965 101.057 21.9609Z" fill="#121214" fill-opacity="0.8"/>
<path d="M36.334 23.8828C35.3379 24.1992 34.4473 24.9727 34.0488 25.875C33.8203 26.4023 33.791 26.5488 33.832 27.334C33.8613 28.3242 34.0781 28.8926 34.6406 29.5313C35.4316 30.4043 36.457 30.8086 37.7637 30.75C38.5195 30.7207 38.7246 30.6738 39.2578 30.4043C40.0137 30.0293 40.6816 29.3438 41.0332 28.5762C41.3848 27.8145 41.3906 26.625 41.0508 25.916L40.8223 25.4355L40.7637 25.916C40.6875 26.5312 40.4766 26.9121 40.002 27.3281C39.0879 28.125 37.6289 28.0605 36.7734 27.1992C36.3047 26.7305 36.1523 26.2969 36.2109 25.6172C36.2813 24.8555 36.8379 24.1934 37.6816 23.8945L38.0508 23.7598H37.3828C37.0195 23.7598 36.5449 23.8184 36.334 23.8828Z" fill="#121214" fill-opacity="0.8"/>
<path d="M120.75 43.2422C120.943 43.2773 120.961 43.3359 120.961 43.8574C120.961 44.584 121.131 44.5957 121.172 43.875C121.201 43.3828 121.23 43.3184 121.436 43.2598C121.588 43.2129 121.477 43.1895 121.102 43.1895C120.791 43.2012 120.627 43.2187 120.75 43.2422Z" fill="#121214" fill-opacity="0.8"/>
<path d="M121.723 43.7988C121.723 44.1562 121.764 44.4258 121.816 44.4258C121.875 44.4258 121.916 44.1914 121.922 43.916V43.4121L122.121 43.916C122.227 44.1914 122.35 44.4258 122.402 44.4258C122.438 44.4258 122.525 44.2617 122.59 44.0566C122.771 43.4883 122.818 43.4824 122.877 43.9922C122.936 44.4609 122.936 44.4492 122.941 43.8164C122.959 43.0312 122.818 42.9902 122.572 43.7109L122.408 44.1855L122.303 43.916C122.25 43.7695 122.174 43.541 122.145 43.4121C122.104 43.2598 122.016 43.1719 121.904 43.1719C121.74 43.1719 121.723 43.248 121.723 43.7988Z" fill="#121214" fill-opacity="0.8"/>
</svg>
