<?xml version="1.0" standalone="no"?>
<!DOCTYPE svg PUBLIC "-//W3C//DTD SVG 20010904//EN"
 "http://www.w3.org/TR/2001/REC-SVG-20010904/DTD/svg10.dtd">
<svg version="1.0" xmlns="http://www.w3.org/2000/svg"
 width="728.000000pt" height="555.000000pt" viewBox="0 0 728.000000 555.000000"
 opacity="0.2"
 preserveAspectRatio="xMidYMid meet">

<g transform="translate(0.000000,555.000000) scale(0.100000,-0.100000)"
fill="#737380" stroke="none">
<path d="M4715 5365 c-96 -14 -282 -58 -293 -71 -4 -4 0 -5 9 -1 44 15 266 29
379 24 570 -28 1036 -313 1305 -797 50 -90 123 -262 145 -342 7 -27 18 -48 25
-48 61 0 371 196 448 283 27 31 27 31 47 12 18 -19 50 -118 50 -157 0 -24 7
-23 91 16 41 19 85 36 99 38 24 3 25 1 32 -77 3 -44 4 -116 0 -160 -3 -44 -5
-82 -4 -84 1 -2 38 -3 82 -2 44 1 80 -2 80 -7 0 -5 -8 -20 -18 -33 -29 -38
-306 -450 -332 -494 -35 -59 -14 -35 106 125 59 80 154 204 210 276 l103 132
-20 53 c-34 90 -134 278 -198 374 -336 500 -972 845 -1736 940 -145 18 -481
18 -610 0z"/>
<path d="M2232 5017 c-22 -35 -62 -167 -62 -204 0 -22 -3 -23 -91 -23 -90 0
-224 -23 -235 -41 -10 -17 130 -438 211 -635 48 -116 124 -267 174 -346 45
-71 57 -83 46 -45 -13 41 -213 591 -264 724 -60 156 -66 213 -26 231 48 22
147 9 260 -34 9 -4 14 23 17 108 5 133 25 191 69 196 46 5 198 -112 397 -306
56 -56 102 -98 102 -94 0 11 -142 197 -205 268 -114 129 -267 234 -341 234
-26 0 -36 -7 -52 -33z"/>
<path d="M4330 4689 c0 -3 16 -40 35 -82 19 -42 42 -100 49 -129 l15 -53 0 51
c1 66 -21 130 -64 179 -19 22 -34 37 -35 34z"/>
<path d="M2368 4633 c-13 -33 -13 -175 0 -218 10 -33 10 -33 36 55 25 87 32
93 122 99 l79 6 -40 27 c-48 33 -117 58 -157 58 -22 0 -31 -6 -40 -27z"/>
<path d="M4041 4505 c-111 -104 -173 -312 -188 -626 l-6 -136 44 -21 c24 -11
76 -30 116 -43 62 -19 74 -21 88 -9 48 40 160 240 189 339 16 56 20 215 7 276
-6 27 -8 25 -19 -29 -14 -68 -34 -96 -70 -96 -61 0 -115 82 -127 195 -6 55 5
120 30 178 13 30 -14 19 -64 -28z"/>
<path d="M3762 4348 c-53 -108 -77 -223 -68 -333 3 -44 10 -93 15 -110 8 -26
9 -21 10 32 1 93 19 204 57 352 18 74 32 136 30 138 -2 2 -22 -33 -44 -79z"/>
<path d="M5673 4361 c-23 -16 -52 -45 -66 -63 -24 -32 -62 -127 -54 -135 3 -2
18 20 35 49 17 29 54 81 83 116 28 34 49 62 46 62 -2 0 -22 -13 -44 -29z"/>
<path d="M3333 4242 c-36 -19 -93 -68 -93 -80 0 -4 29 -37 65 -72 36 -35 65
-62 65 -58 0 10 19 158 26 196 6 38 -11 42 -63 14z"/>
<path d="M5654 4120 c-84 -59 -157 -211 -190 -392 -8 -46 -18 -158 -21 -249
l-6 -166 33 -11 c18 -7 74 -15 125 -18 l93 -7 32 44 c40 55 111 203 139 289
29 87 46 244 33 290 -10 33 -10 33 -11 7 -2 -65 -63 -152 -98 -141 -78 25
-106 75 -111 200 -4 76 -1 99 16 138 12 25 18 46 14 46 -4 -1 -26 -14 -48 -30z"/>
<path d="M829 3999 c-340 -50 -561 -376 -634 -933 -20 -146 -19 -485 0 -646
41 -339 117 -617 243 -890 62 -135 201 -356 342 -545 128 -172 149 -195 319
-365 287 -287 555 -469 863 -589 l68 -26 72 70 c103 98 738 612 841 680 15 10
26 20 23 22 -22 23 -421 -230 -881 -560 -99 -71 -122 -83 -131 -71 -11 14 -32
125 -36 192 -2 29 -5 32 -28 28 -87 -18 -169 -26 -273 -26 -98 0 -119 3 -124
16 -3 8 11 81 32 161 28 109 35 147 26 153 -7 4 -60 10 -118 13 -57 4 -109 10
-114 13 -5 3 3 28 18 56 19 34 76 96 172 187 207 194 248 237 318 332 34 46
129 167 212 269 l150 185 -42 3 c-386 23 -736 175 -1067 463 -33 28 -60 55
-60 60 0 4 24 15 53 24 173 57 328 179 388 307 32 68 34 81 37 190 6 199 -44
346 -154 454 -50 50 -77 68 -142 93 -182 70 -294 45 -357 -80 -35 -68 -31 -85
5 -23 21 38 41 57 73 73 52 25 83 26 161 6 174 -45 287 -167 337 -363 45 -177
11 -311 -110 -432 -93 -93 -177 -133 -292 -138 -97 -5 -157 10 -246 60 -156
87 -305 296 -347 485 -9 40 -19 133 -23 206 -22 459 131 736 443 802 130 28
308 14 468 -35 37 -12 70 -19 72 -17 8 8 -179 85 -266 110 -98 28 -211 38
-291 26z"/>
<path d="M5997 3860 c-12 -135 -36 -257 -72 -365 -18 -55 -32 -101 -30 -103 7
-8 86 171 100 227 20 80 29 221 18 281 -9 44 -9 44 -16 -40z"/>
<path d="M3584 3670 c17 -57 138 -294 190 -373 247 -371 618 -585 1066 -616
128 -9 278 0 385 23 199 42 419 155 554 283 l56 53 -40 -6 c-49 -7 -293 10
-515 36 -91 11 -262 23 -380 26 l-215 7 -40 34 c-73 63 -316 176 -645 303
-120 46 -244 113 -325 178 -38 30 -76 60 -84 66 -11 9 -13 6 -7 -14z"/>
<path d="M3460 3472 c0 -35 -62 -218 -100 -295 -95 -190 -223 -293 -379 -305
l-67 -4 0 -102 c-1 -156 -52 -337 -155 -555 -33 -68 -59 -125 -59 -127 0 -1
19 -5 43 -9 23 -4 72 -25 109 -46 140 -82 277 -256 364 -462 48 -115 110 -340
121 -439 l6 -57 81 -30 c92 -33 261 -72 416 -96 138 -22 512 -31 649 -16 359
39 623 144 851 339 283 242 462 549 541 924 35 167 37 573 3 661 -4 11 -24 4
-92 -34 -298 -166 -690 -251 -1016 -220 -224 22 -412 75 -611 172 -284 140
-523 373 -647 629 -42 88 -58 108 -58 72z"/>
<path d="M4515 3400 c-10 -16 15 -80 31 -80 17 0 19 42 4 71 -12 21 -25 25
-35 9z"/>
<path d="M4908 3279 c-32 -24 -37 -49 -10 -49 22 0 64 38 59 53 -6 18 -21 17
-49 -4z"/>
<path d="M2511 3187 c-22 -52 -55 -183 -72 -292 -21 -126 -18 -491 4 -587 21
-88 41 -114 64 -83 95 126 192 507 193 753 l0 73 -77 89 c-43 48 -82 89 -86
89 -4 1 -16 -18 -26 -42z"/>
<path d="M6114 1709 c61 -80 134 -214 160 -294 61 -191 31 -392 -83 -561 l-49
-72 72 -73 c119 -122 272 -358 244 -375 -7 -5 -55 -10 -106 -12 -67 -3 -90 -8
-83 -16 13 -16 41 -115 41 -144 0 -24 -1 -25 -62 -19 -35 3 -102 20 -150 36
-47 17 -88 31 -90 31 -2 0 -2 -31 0 -70 2 -42 0 -70 -6 -70 -6 0 -50 14 -99
31 -182 64 -465 228 -712 414 -172 130 -184 156 -123 278 12 25 -40 -18 -53
-43 -43 -82 12 -174 190 -315 150 -119 315 -222 485 -302 76 -35 270 -108 317
-118 30 -6 32 -4 42 32 6 21 11 49 11 62 0 20 4 22 23 17 52 -16 176 -35 225
-36 l52 0 0 83 0 84 88 17 c48 9 90 20 94 24 15 15 20 279 9 412 -27 308 -95
540 -223 755 -63 108 -173 243 -234 290 -35 27 -34 25 20 -46z"/>
</g>
</svg>
